<svg width="220" height="220" viewBox="0 0 220 220" fill="none" xmlns="http://www.w3.org/2000/svg">
<g clip-path="url(#clip0_5_58)">
<path d="M171.875 0H48.125C21.5463 0 0 21.5463 0 48.125V171.875C0 198.454 21.5463 220 48.125 220H171.875C198.454 220 220 198.454 220 171.875V48.125C220 21.5463 198.454 0 171.875 0Z" fill="#0F172A"/>
<path fill-rule="evenodd" clip-rule="evenodd" d="M58.4375 44.6875H161.562C167.292 44.6875 170.156 49.2708 170.156 58.4375V110C170.156 151.25 146.094 180.469 110 195.938C73.9062 180.469 49.8438 151.25 49.8438 110V58.4375C49.8438 49.2708 52.7083 44.6875 58.4375 44.6875ZM110 82.5C115.014 82.5011 119.822 84.4938 123.367 88.0398C126.911 91.5857 128.903 96.3945 128.902 101.408C128.901 106.422 126.909 111.231 123.364 114.776C119.818 118.321 115.01 120.312 109.996 120.312C104.982 120.312 100.173 118.321 96.6277 114.776C93.0822 111.231 91.09 106.422 91.0895 101.408C91.0889 96.3945 93.0799 91.5857 96.6247 88.0398C100.169 84.4938 104.978 82.5011 109.991 82.5H110ZM101.406 110L96.25 144.375H123.75L118.594 110H101.406Z" fill="url(#paint0_linear_5_58)"/>
</g>
<defs>
<linearGradient id="paint0_linear_5_58" x1="49.8438" y1="44.6875" x2="197.218" y2="161.917" gradientUnits="userSpaceOnUse">
<stop stop-color="#22D3EE"/>
<stop offset="0.45" stop-color="#06B6D4"/>
<stop offset="1" stop-color="#2563EB"/>
</linearGradient>
<clipPath id="clip0_5_58">
<rect width="220" height="220" fill="white"/>
</clipPath>
</defs>
</svg>
