<svg width="900" height="210" viewBox="0 0 900 210" fill="none" xmlns="http://www.w3.org/2000/svg">
<rect width="900" height="210" rx="24" fill="#0F172A"/>
<path opacity="0.95" d="M61.4375 119.891C61.4375 82.3906 84.875 62.4688 113 62.4688C141.125 62.4688 164.562 82.3906 164.562 119.891" stroke="url(#paint0_linear_5_3)" stroke-width="4.10156" stroke-linecap="round"/>
<path opacity="0.4" d="M71.9844 119.891C71.9844 89.4219 90.7344 73.0156 113 73.0156C135.266 73.0156 154.016 89.4219 154.016 119.891" stroke="url(#paint1_linear_5_3)" stroke-width="2.05078" stroke-linecap="round"/>
<path d="M61.4375 126.922C65.3208 126.922 68.4688 123.774 68.4688 119.891C68.4688 116.007 65.3208 112.859 61.4375 112.859C57.5542 112.859 54.4062 116.007 54.4062 119.891C54.4062 123.774 57.5542 126.922 61.4375 126.922Z" fill="#0B1220"/>
<path d="M61.4375 126.922C65.3208 126.922 68.4688 123.774 68.4688 119.891C68.4688 116.007 65.3208 112.859 61.4375 112.859C57.5542 112.859 54.4062 116.007 54.4062 119.891C54.4062 123.774 57.5542 126.922 61.4375 126.922Z" stroke="url(#paint2_linear_5_3)" stroke-width="2.34375"/>
<path d="M164.562 126.922C168.446 126.922 171.594 123.774 171.594 119.891C171.594 116.007 168.446 112.859 164.562 112.859C160.679 112.859 157.531 116.007 157.531 119.891C157.531 123.774 160.679 126.922 164.562 126.922Z" fill="#0B1220"/>
<path d="M164.562 126.922C168.446 126.922 171.594 123.774 171.594 119.891C171.594 116.007 168.446 112.859 164.562 112.859C160.679 112.859 157.531 116.007 157.531 119.891C157.531 123.774 160.679 126.922 164.562 126.922Z" stroke="url(#paint3_linear_5_3)" stroke-width="2.34375"/>
<path fill-rule="evenodd" clip-rule="evenodd" d="M89.5625 64.8125H136.438C138.781 64.8125 139.953 67.9375 139.953 74.1875V99.9688C139.953 122.234 128.234 138.641 113 147.43C97.7656 138.641 86.0469 122.234 86.0469 99.9688V74.1875C86.0469 67.9375 87.2188 64.8125 89.5625 64.8125ZM113 85.3203C115.642 85.3211 118.175 86.3711 120.042 88.2394C121.91 90.1076 122.958 92.6412 122.958 95.2827C122.958 97.9243 121.908 100.457 120.04 102.325C118.172 104.193 115.639 105.242 112.997 105.242C110.356 105.242 107.822 104.193 105.954 102.325C104.086 100.457 103.037 97.9243 103.036 95.2827C103.036 92.6412 104.085 90.1076 105.952 88.2394C107.82 86.3711 110.353 85.3211 112.994 85.3203H113ZM108.312 102.312L105.969 119.891H120.031L117.688 102.312H108.312Z" fill="url(#paint4_linear_5_3)"/>
<path d="M248.38 75.8771C248.204 74.1011 247.448 72.7214 246.112 71.7379C244.777 70.7545 242.964 70.2628 240.674 70.2628C239.118 70.2628 237.804 70.483 236.733 70.9233C235.661 71.349 234.839 71.9434 234.267 72.7067C233.709 73.4699 233.43 74.3359 233.43 75.3047C233.401 76.112 233.57 76.8165 233.937 77.4183C234.318 78.0201 234.839 78.5412 235.5 78.9815C236.161 79.4072 236.924 79.7815 237.79 80.1044C238.656 80.4126 239.58 80.6768 240.564 80.897L244.615 81.8658C246.582 82.3061 248.387 82.8932 250.031 83.6271C251.675 84.361 253.099 85.2637 254.303 86.3352C255.506 87.4067 256.438 88.669 257.099 90.1222C257.774 91.5753 258.119 93.2412 258.134 95.12C258.119 97.8795 257.414 100.272 256.02 102.298C254.64 104.308 252.644 105.872 250.031 106.987C247.433 108.088 244.299 108.638 240.63 108.638C236.99 108.638 233.819 108.081 231.119 106.965C228.433 105.85 226.334 104.198 224.822 102.011C223.325 99.8097 222.539 97.0869 222.466 93.843H231.691C231.794 95.3549 232.227 96.6172 232.99 97.63C233.768 98.6281 234.803 99.384 236.094 99.8977C237.401 100.397 238.876 100.646 240.52 100.646C242.134 100.646 243.536 100.411 244.725 99.9418C245.929 99.4721 246.861 98.8189 247.521 97.9822C248.182 97.1456 248.512 96.1842 248.512 95.098C248.512 94.0852 248.211 93.2339 247.609 92.544C247.022 91.8542 246.156 91.267 245.011 90.7827C243.881 90.2983 242.494 89.858 240.85 89.4616L235.94 88.2287C232.139 87.304 229.137 85.8582 226.935 83.8913C224.734 81.9245 223.64 79.2751 223.655 75.9432C223.64 73.2131 224.367 70.8279 225.835 68.7876C227.317 66.7474 229.35 65.1548 231.933 64.0099C234.517 62.8651 237.452 62.2926 240.74 62.2926C244.087 62.2926 247.008 62.8651 249.503 64.0099C252.013 65.1548 253.965 66.7474 255.359 68.7876C256.754 70.8279 257.473 73.191 257.517 75.8771H248.38ZM279.782 108.661C276.303 108.661 273.309 107.956 270.799 106.547C268.304 105.123 266.381 103.112 265.03 100.514C263.68 97.9015 263.005 94.8118 263.005 91.245C263.005 87.7663 263.68 84.7133 265.03 82.0859C266.381 79.4586 268.282 77.411 270.733 75.9432C273.199 74.4754 276.09 73.7415 279.407 73.7415C281.639 73.7415 283.715 74.1011 285.638 74.8203C287.576 75.5249 289.264 76.589 290.702 78.0128C292.155 79.4366 293.286 81.2273 294.093 83.3849C294.9 85.5279 295.304 88.0379 295.304 90.9148V93.4908H266.748V87.6783H286.475C286.475 86.3279 286.181 85.1316 285.594 84.0895C285.007 83.0473 284.193 82.2327 283.15 81.6456C282.123 81.0438 280.927 80.7429 279.562 80.7429C278.138 80.7429 276.876 81.0732 275.775 81.7337C274.689 82.3795 273.837 83.2528 273.221 84.3537C272.604 85.4399 272.289 86.6508 272.274 87.9865V93.5128C272.274 95.1861 272.582 96.6319 273.199 97.8501C273.83 99.0684 274.718 100.008 275.863 100.668C277.008 101.329 278.365 101.659 279.936 101.659C280.978 101.659 281.932 101.512 282.798 101.219C283.664 100.925 284.405 100.485 285.022 99.8977C285.638 99.3106 286.108 98.5914 286.431 97.7401L295.106 98.3125C294.665 100.397 293.763 102.217 292.398 103.773C291.047 105.314 289.3 106.518 287.157 107.384C285.029 108.235 282.571 108.661 279.782 108.661ZM316.704 108.661C313.24 108.661 310.261 107.927 307.765 106.459C305.285 104.976 303.377 102.921 302.041 100.294C300.72 97.6667 300.059 94.643 300.059 91.223C300.059 87.759 300.727 84.7206 302.063 82.108C303.413 79.4806 305.329 77.433 307.809 75.9652C310.29 74.4827 313.24 73.7415 316.66 73.7415C319.611 73.7415 322.194 74.2772 324.41 75.3487C326.627 76.4202 328.381 77.9247 329.672 79.8622C330.964 81.7997 331.676 84.0748 331.808 86.6875H322.957C322.708 84.9995 322.047 83.6418 320.976 82.6143C319.919 81.5722 318.532 81.0511 316.814 81.0511C315.361 81.0511 314.092 81.4474 313.006 82.2401C311.934 83.018 311.097 84.1555 310.496 85.6527C309.894 87.1499 309.593 88.9626 309.593 91.0909C309.593 93.2486 309.886 95.0833 310.474 96.5952C311.075 98.107 311.919 99.2592 313.006 100.052C314.092 100.844 315.361 101.241 316.814 101.241C317.886 101.241 318.847 101.021 319.699 100.58C320.565 100.14 321.277 99.5014 321.834 98.6648C322.407 97.8134 322.781 96.7933 322.957 95.6044H331.808C331.661 98.1877 330.957 100.463 329.694 102.43C328.447 104.382 326.722 105.908 324.52 107.009C322.319 108.11 319.713 108.661 316.704 108.661ZM337.813 108V74.1818H346.906V80.0824H347.259C347.875 77.9834 348.91 76.3982 350.363 75.3267C351.816 74.2405 353.489 73.6974 355.383 73.6974C355.853 73.6974 356.359 73.7268 356.902 73.7855C357.445 73.8442 357.922 73.925 358.333 74.0277V82.3501C357.893 82.218 357.284 82.1006 356.506 81.9979C355.728 81.8951 355.016 81.8438 354.37 81.8438C352.99 81.8438 351.757 82.1446 350.671 82.7464C349.6 83.3336 348.748 84.1555 348.117 85.2124C347.501 86.2692 347.192 87.4875 347.192 88.8672V108H337.813ZM377.02 108.661C373.541 108.661 370.547 107.956 368.037 106.547C365.542 105.123 363.619 103.112 362.269 100.514C360.918 97.9015 360.243 94.8118 360.243 91.245C360.243 87.7663 360.918 84.7133 362.269 82.0859C363.619 79.4586 365.52 77.411 367.971 75.9432C370.437 74.4754 373.329 73.7415 376.646 73.7415C378.877 73.7415 380.954 74.1011 382.877 74.8203C384.814 75.5249 386.502 76.589 387.941 78.0128C389.394 79.4366 390.524 81.2273 391.331 83.3849C392.138 85.5279 392.542 88.0379 392.542 90.9148V93.4908H363.986V87.6783H383.713C383.713 86.3279 383.42 85.1316 382.833 84.0895C382.245 83.0473 381.431 82.2327 380.389 81.6456C379.361 81.0438 378.165 80.7429 376.8 80.7429C375.376 80.7429 374.114 81.0732 373.013 81.7337C371.927 82.3795 371.075 83.2528 370.459 84.3537C369.843 85.4399 369.527 86.6508 369.512 87.9865V93.5128C369.512 95.1861 369.82 96.6319 370.437 97.8501C371.068 99.0684 371.956 100.008 373.101 100.668C374.246 101.329 375.604 101.659 377.174 101.659C378.216 101.659 379.17 101.512 380.036 101.219C380.902 100.925 381.644 100.485 382.26 99.8977C382.877 99.3106 383.346 98.5914 383.669 97.7401L392.344 98.3125C391.904 100.397 391.001 102.217 389.636 103.773C388.285 105.314 386.539 106.518 384.396 107.384C382.267 108.235 379.809 108.661 377.02 108.661ZM416.651 74.1818V81.2273H396.285V74.1818H416.651ZM400.909 66.0795H410.288V97.608C410.288 98.474 410.42 99.1491 410.684 99.6335C410.948 100.103 411.315 100.433 411.785 100.624C412.269 100.815 412.827 100.911 413.458 100.911C413.899 100.911 414.339 100.874 414.779 100.8C415.22 100.712 415.557 100.646 415.792 100.602L417.267 107.582C416.798 107.728 416.137 107.897 415.286 108.088C414.434 108.294 413.4 108.418 412.181 108.462C409.921 108.55 407.939 108.25 406.237 107.56C404.549 106.87 403.235 105.798 402.296 104.345C401.356 102.892 400.894 101.057 400.909 98.8409V66.0795ZM450.474 83.8253L441.888 84.3537C441.741 83.6198 441.425 82.9593 440.941 82.3722C440.457 81.7704 439.818 81.2933 439.026 80.941C438.248 80.5741 437.316 80.3906 436.229 80.3906C434.776 80.3906 433.551 80.6989 432.553 81.3153C431.554 81.9171 431.055 82.7244 431.055 83.7372C431.055 84.5445 431.378 85.227 432.024 85.7848C432.67 86.3426 433.778 86.7902 435.349 87.1278L441.469 88.3608C444.757 89.036 447.209 90.1222 448.823 91.6193C450.438 93.1165 451.245 95.0833 451.245 97.5199C451.245 99.7363 450.592 101.681 449.286 103.354C447.994 105.028 446.218 106.334 443.957 107.273C441.712 108.198 439.121 108.661 436.185 108.661C431.709 108.661 428.142 107.728 425.485 105.864C422.843 103.986 421.295 101.432 420.839 98.2024L430.065 97.718C430.344 99.0831 431.019 100.125 432.09 100.844C433.162 101.549 434.534 101.901 436.207 101.901C437.851 101.901 439.172 101.586 440.17 100.955C441.183 100.309 441.697 99.4794 441.712 98.4666C441.697 97.6153 441.337 96.9181 440.633 96.375C439.928 95.8172 438.842 95.3916 437.374 95.098L431.518 93.9311C428.215 93.2706 425.757 92.1257 424.142 90.4964C422.542 88.8672 421.742 86.7902 421.742 84.2656C421.742 82.0933 422.329 80.2218 423.504 78.6513C424.692 77.0807 426.358 75.8698 428.501 75.0185C430.659 74.1671 433.184 73.7415 436.075 73.7415C440.347 73.7415 443.708 74.6442 446.159 76.4496C448.625 78.255 450.063 80.7135 450.474 83.8253Z" fill="#E2E8F0"/>
<path d="M457.327 108V62.9091H475.381C478.698 62.9091 481.465 63.4008 483.682 64.3842C485.898 65.3677 487.564 66.7327 488.68 68.4794C489.795 70.2114 490.353 72.2076 490.353 74.468C490.353 76.2294 490.001 77.7779 489.296 79.1136C488.591 80.4347 487.623 81.5208 486.39 82.3722C485.171 83.2088 483.777 83.8033 482.206 84.1555V84.5959C483.924 84.6693 485.531 85.1536 487.028 86.049C488.54 86.9444 489.766 88.1993 490.705 89.8139C491.644 91.4138 492.114 93.322 492.114 95.5384C492.114 97.9309 491.52 100.067 490.331 101.945C489.157 103.809 487.417 105.285 485.113 106.371C482.808 107.457 479.968 108 476.592 108H457.327ZM466.861 100.206H474.633C477.289 100.206 479.227 99.6996 480.445 98.6868C481.663 97.6593 482.273 96.2943 482.273 94.5916C482.273 93.344 481.972 92.2431 481.37 91.2891C480.768 90.335 479.909 89.5864 478.794 89.0433C477.693 88.5002 476.379 88.2287 474.853 88.2287H466.861V100.206ZM466.861 81.7777H473.928C475.234 81.7777 476.394 81.5502 477.407 81.0952C478.434 80.6255 479.242 79.965 479.829 79.1136C480.43 78.2623 480.731 77.2422 480.731 76.0533C480.731 74.424 480.152 73.1103 478.992 72.1122C477.847 71.1141 476.218 70.6151 474.104 70.6151H466.861V81.7777ZM498.141 108V74.1818H507.234V80.0824H507.587C508.203 77.9834 509.238 76.3982 510.691 75.3267C512.144 74.2405 513.817 73.6974 515.711 73.6974C516.181 73.6974 516.687 73.7268 517.23 73.7855C517.773 73.8442 518.25 73.925 518.661 74.0277V82.3501C518.221 82.218 517.612 82.1006 516.834 81.9979C516.056 81.8951 515.344 81.8438 514.698 81.8438C513.318 81.8438 512.085 82.1446 510.999 82.7464C509.928 83.3336 509.076 84.1555 508.445 85.2124C507.829 86.2692 507.521 87.4875 507.521 88.8672V108H498.141ZM523.51 108V74.1818H532.89V108H523.51ZM528.222 69.8224C526.828 69.8224 525.631 69.3601 524.633 68.4354C523.65 67.496 523.158 66.3731 523.158 65.0668C523.158 63.7751 523.65 62.6669 524.633 61.7422C525.631 60.8028 526.828 60.3331 528.222 60.3331C529.617 60.3331 530.805 60.8028 531.789 61.7422C532.787 62.6669 533.286 63.7751 533.286 65.0668C533.286 66.3731 532.787 67.496 531.789 68.4354C530.805 69.3601 529.617 69.8224 528.222 69.8224ZM552.865 108.55C550.296 108.55 547.97 107.89 545.885 106.569C543.816 105.233 542.172 103.274 540.953 100.69C539.75 98.0923 539.148 94.9072 539.148 91.1349C539.148 87.2599 539.772 84.0381 541.02 81.4695C542.267 78.8861 543.926 76.956 545.995 75.679C548.08 74.3873 550.362 73.7415 552.843 73.7415C554.736 73.7415 556.314 74.0644 557.576 74.7102C558.853 75.3414 559.881 76.134 560.659 77.0881C561.451 78.0275 562.053 78.9522 562.464 79.8622H562.75V62.9091H572.108V108H562.86V102.584H562.464C562.024 103.523 561.4 104.455 560.593 105.38C559.8 106.29 558.765 107.046 557.488 107.648C556.226 108.25 554.685 108.55 552.865 108.55ZM555.837 101.087C557.349 101.087 558.626 100.676 559.668 99.8537C560.725 99.017 561.532 97.8501 562.09 96.353C562.662 94.8558 562.949 93.1018 562.949 91.0909C562.949 89.08 562.67 87.3333 562.112 85.8509C561.554 84.3684 560.747 83.2235 559.69 82.4162C558.633 81.6089 557.349 81.2053 555.837 81.2053C554.296 81.2053 552.997 81.6236 551.94 82.4602C550.883 83.2969 550.083 84.4564 549.54 85.9389C548.997 87.4214 548.725 89.1387 548.725 91.0909C548.725 93.0578 548.997 94.7971 549.54 96.3089C550.098 97.8061 550.898 98.9804 551.94 99.8317C552.997 100.668 554.296 101.087 555.837 101.087ZM595.055 121.386C592.017 121.386 589.411 120.968 587.239 120.131C585.081 119.309 583.364 118.187 582.087 116.763C580.81 115.339 579.981 113.739 579.599 111.963L588.274 110.796C588.538 111.471 588.956 112.103 589.529 112.69C590.101 113.277 590.857 113.746 591.796 114.099C592.75 114.466 593.91 114.649 595.275 114.649C597.315 114.649 598.996 114.15 600.317 113.152C601.653 112.169 602.32 110.517 602.32 108.198V102.011H601.924C601.513 102.951 600.897 103.839 600.075 104.675C599.253 105.512 598.196 106.195 596.904 106.723C595.613 107.251 594.071 107.516 592.281 107.516C589.741 107.516 587.43 106.929 585.345 105.754C583.276 104.565 581.624 102.753 580.392 100.316C579.173 97.8648 578.564 94.7678 578.564 91.0249C578.564 87.1939 579.188 83.9941 580.436 81.4254C581.683 78.8568 583.342 76.9339 585.411 75.657C587.496 74.38 589.778 73.7415 592.259 73.7415C594.152 73.7415 595.737 74.0644 597.014 74.7102C598.291 75.3414 599.319 76.134 600.097 77.0881C600.889 78.0275 601.499 78.9522 601.924 79.8622H602.276V74.1818H611.59V108.33C611.59 111.207 610.885 113.614 609.476 115.552C608.067 117.489 606.115 118.942 603.619 119.911C601.139 120.895 598.284 121.386 595.055 121.386ZM595.253 100.47C596.765 100.47 598.042 100.096 599.084 99.3473C600.141 98.584 600.948 97.4979 601.506 96.0888C602.078 94.665 602.365 92.9624 602.365 90.9808C602.365 88.9993 602.086 87.282 601.528 85.8288C600.97 84.361 600.163 83.2235 599.106 82.4162C598.049 81.6089 596.765 81.2053 595.253 81.2053C593.712 81.2053 592.413 81.6236 591.356 82.4602C590.299 83.2822 589.499 84.4271 588.956 85.8949C588.413 87.3627 588.142 89.058 588.142 90.9808C588.142 92.933 588.413 94.621 588.956 96.0447C589.514 97.4538 590.314 98.5473 591.356 99.3253C592.413 100.089 593.712 100.47 595.253 100.47ZM634.465 108.661C630.987 108.661 627.992 107.956 625.482 106.547C622.987 105.123 621.064 103.112 619.714 100.514C618.364 97.9015 617.688 94.8118 617.688 91.245C617.688 87.7663 618.364 84.7133 619.714 82.0859C621.064 79.4586 622.965 77.411 625.416 75.9432C627.882 74.4754 630.774 73.7415 634.091 73.7415C636.322 73.7415 638.399 74.1011 640.322 74.8203C642.259 75.5249 643.947 76.589 645.386 78.0128C646.839 79.4366 647.969 81.2273 648.776 83.3849C649.584 85.5279 649.987 88.0379 649.987 90.9148V93.4908H621.431V87.6783H641.159C641.159 86.3279 640.865 85.1316 640.278 84.0895C639.691 83.0473 638.876 82.2327 637.834 81.6456C636.807 81.0438 635.61 80.7429 634.245 80.7429C632.821 80.7429 631.559 81.0732 630.458 81.7337C629.372 82.3795 628.521 83.2528 627.904 84.3537C627.288 85.4399 626.972 86.6508 626.958 87.9865V93.5128C626.958 95.1861 627.266 96.6319 627.882 97.8501C628.513 99.0684 629.401 100.008 630.546 100.668C631.691 101.329 633.049 101.659 634.619 101.659C635.662 101.659 636.616 101.512 637.482 101.219C638.348 100.925 639.089 100.485 639.705 99.8977C640.322 99.3106 640.792 98.5914 641.115 97.7401L649.789 98.3125C649.349 100.397 648.446 102.217 647.081 103.773C645.731 105.314 643.984 106.518 641.841 107.384C639.713 108.235 637.254 108.661 634.465 108.661Z" fill="url(#paint5_linear_5_3)"/>
<path d="M235.568 129.545H237.682V141.102C237.682 142.295 237.401 143.361 236.838 144.298C236.281 145.23 235.494 145.966 234.477 146.506C233.46 147.04 232.267 147.307 230.898 147.307C229.528 147.307 228.335 147.04 227.318 146.506C226.301 145.966 225.511 145.23 224.949 144.298C224.392 143.361 224.114 142.295 224.114 141.102V129.545H226.227V140.932C226.227 141.784 226.415 142.543 226.79 143.207C227.165 143.866 227.699 144.386 228.392 144.767C229.091 145.142 229.926 145.33 230.898 145.33C231.869 145.33 232.705 145.142 233.403 144.767C234.102 144.386 234.636 143.866 235.006 143.207C235.381 142.543 235.568 141.784 235.568 140.932V129.545ZM243.641 139.125V147H241.63V133.909H243.573V135.955H243.744C244.05 135.29 244.516 134.756 245.141 134.352C245.766 133.943 246.573 133.739 247.562 133.739C248.448 133.739 249.224 133.92 249.888 134.284C250.553 134.642 251.07 135.188 251.44 135.92C251.809 136.648 251.994 137.568 251.994 138.682V147H249.982V138.818C249.982 137.79 249.715 136.989 249.181 136.415C248.647 135.835 247.914 135.545 246.982 135.545C246.34 135.545 245.766 135.685 245.261 135.963C244.761 136.241 244.366 136.648 244.076 137.182C243.786 137.716 243.641 138.364 243.641 139.125ZM255.669 147V133.909H257.68V147H255.669ZM256.692 131.727C256.3 131.727 255.962 131.594 255.678 131.327C255.399 131.06 255.26 130.739 255.26 130.364C255.26 129.989 255.399 129.668 255.678 129.401C255.962 129.134 256.3 129 256.692 129C257.084 129 257.419 129.134 257.697 129.401C257.982 129.668 258.124 129.989 258.124 130.364C258.124 130.739 257.982 131.06 257.697 131.327C257.419 131.594 257.084 131.727 256.692 131.727ZM267.194 133.909V135.614H260.137V133.909H267.194ZM262.251 147V132.102C262.251 131.352 262.427 130.727 262.779 130.227C263.131 129.727 263.589 129.352 264.151 129.102C264.714 128.852 265.308 128.727 265.933 128.727C266.427 128.727 266.83 128.767 267.143 128.847C267.455 128.926 267.688 129 267.842 129.068L267.262 130.807C267.16 130.773 267.018 130.73 266.836 130.679C266.66 130.628 266.427 130.602 266.137 130.602C265.472 130.602 264.992 130.77 264.697 131.105C264.407 131.44 264.262 131.932 264.262 132.58V147H262.251ZM270.013 147V133.909H272.024V147H270.013ZM271.036 131.727C270.643 131.727 270.305 131.594 270.021 131.327C269.743 131.06 269.604 130.739 269.604 130.364C269.604 129.989 269.743 129.668 270.021 129.401C270.305 129.134 270.643 129 271.036 129C271.428 129 271.763 129.134 272.041 129.401C272.325 129.668 272.467 129.989 272.467 130.364C272.467 130.739 272.325 131.06 272.041 131.327C271.763 131.594 271.428 131.727 271.036 131.727ZM281.197 147.273C279.935 147.273 278.847 146.994 277.933 146.438C277.023 145.875 276.322 145.091 275.827 144.085C275.339 143.074 275.094 141.898 275.094 140.557C275.094 139.216 275.339 138.034 275.827 137.011C276.322 135.983 277.009 135.182 277.89 134.608C278.776 134.028 279.81 133.739 280.992 133.739C281.674 133.739 282.347 133.852 283.012 134.08C283.677 134.307 284.282 134.676 284.827 135.188C285.373 135.693 285.808 136.364 286.131 137.199C286.455 138.034 286.617 139.062 286.617 140.284V141.136H276.526V139.398H284.572C284.572 138.659 284.424 138 284.129 137.42C283.839 136.841 283.424 136.384 282.884 136.048C282.35 135.713 281.719 135.545 280.992 135.545C280.191 135.545 279.498 135.744 278.913 136.142C278.333 136.534 277.887 137.045 277.575 137.676C277.262 138.307 277.106 138.983 277.106 139.705V140.864C277.106 141.852 277.276 142.69 277.617 143.378C277.964 144.06 278.444 144.58 279.058 144.938C279.671 145.29 280.384 145.466 281.197 145.466C281.725 145.466 282.202 145.392 282.629 145.244C283.06 145.091 283.433 144.864 283.745 144.562C284.058 144.256 284.299 143.875 284.469 143.42L286.413 143.966C286.208 144.625 285.864 145.205 285.381 145.705C284.898 146.199 284.302 146.585 283.592 146.864C282.881 147.136 282.083 147.273 281.197 147.273ZM294.62 147.273C293.529 147.273 292.566 146.997 291.731 146.446C290.896 145.889 290.242 145.105 289.771 144.094C289.299 143.077 289.063 141.875 289.063 140.489C289.063 139.114 289.299 137.92 289.771 136.909C290.242 135.898 290.898 135.116 291.739 134.565C292.58 134.014 293.552 133.739 294.654 133.739C295.506 133.739 296.18 133.881 296.674 134.165C297.174 134.443 297.555 134.761 297.816 135.119C298.083 135.472 298.29 135.761 298.438 135.989H298.609V129.545H300.62V147H298.677V144.989H298.438C298.29 145.227 298.08 145.528 297.808 145.892C297.535 146.25 297.146 146.571 296.64 146.855C296.134 147.134 295.461 147.273 294.62 147.273ZM294.893 145.466C295.7 145.466 296.381 145.256 296.938 144.835C297.495 144.409 297.918 143.821 298.208 143.071C298.498 142.315 298.643 141.443 298.643 140.455C298.643 139.477 298.501 138.622 298.217 137.889C297.933 137.151 297.512 136.577 296.955 136.168C296.398 135.753 295.711 135.545 294.893 135.545C294.04 135.545 293.33 135.764 292.762 136.202C292.2 136.634 291.776 137.222 291.492 137.966C291.214 138.705 291.075 139.534 291.075 140.455C291.075 141.386 291.217 142.233 291.501 142.994C291.79 143.75 292.217 144.352 292.779 144.801C293.347 145.244 294.052 145.466 294.893 145.466ZM321.151 133.909C321.049 133.045 320.634 132.375 319.907 131.898C319.18 131.42 318.288 131.182 317.231 131.182C316.458 131.182 315.782 131.307 315.202 131.557C314.629 131.807 314.18 132.151 313.856 132.588C313.538 133.026 313.379 133.523 313.379 134.08C313.379 134.545 313.489 134.946 313.711 135.281C313.938 135.611 314.228 135.886 314.58 136.108C314.933 136.324 315.302 136.503 315.688 136.645C316.075 136.781 316.43 136.892 316.754 136.977L318.526 137.455C318.981 137.574 319.487 137.739 320.043 137.949C320.606 138.159 321.143 138.446 321.654 138.81C322.171 139.168 322.597 139.628 322.933 140.19C323.268 140.753 323.435 141.443 323.435 142.261C323.435 143.205 323.188 144.057 322.694 144.818C322.205 145.58 321.489 146.185 320.546 146.634C319.609 147.082 318.469 147.307 317.129 147.307C315.879 147.307 314.796 147.105 313.881 146.702C312.972 146.298 312.256 145.736 311.734 145.014C311.217 144.293 310.924 143.455 310.856 142.5H313.038C313.094 143.159 313.316 143.705 313.702 144.136C314.094 144.562 314.589 144.881 315.185 145.091C315.788 145.295 316.435 145.398 317.129 145.398C317.935 145.398 318.66 145.267 319.302 145.006C319.944 144.739 320.452 144.369 320.827 143.898C321.202 143.42 321.39 142.864 321.39 142.227C321.39 141.648 321.228 141.176 320.904 140.812C320.58 140.449 320.154 140.153 319.626 139.926C319.097 139.699 318.526 139.5 317.913 139.33L315.765 138.716C314.401 138.324 313.322 137.764 312.526 137.037C311.731 136.31 311.333 135.358 311.333 134.182C311.333 133.205 311.597 132.352 312.126 131.625C312.66 130.892 313.376 130.324 314.273 129.92C315.177 129.511 316.185 129.307 317.299 129.307C318.424 129.307 319.424 129.509 320.299 129.912C321.174 130.31 321.867 130.855 322.379 131.548C322.896 132.241 323.168 133.028 323.197 133.909H321.151ZM332.126 147.273C330.865 147.273 329.777 146.994 328.862 146.438C327.953 145.875 327.251 145.091 326.757 144.085C326.268 143.074 326.024 141.898 326.024 140.557C326.024 139.216 326.268 138.034 326.757 137.011C327.251 135.983 327.939 135.182 328.82 134.608C329.706 134.028 330.74 133.739 331.922 133.739C332.604 133.739 333.277 133.852 333.942 134.08C334.607 134.307 335.212 134.676 335.757 135.188C336.303 135.693 336.737 136.364 337.061 137.199C337.385 138.034 337.547 139.062 337.547 140.284V141.136H327.456V139.398H335.501C335.501 138.659 335.354 138 335.058 137.42C334.768 136.841 334.354 136.384 333.814 136.048C333.28 135.713 332.649 135.545 331.922 135.545C331.121 135.545 330.428 135.744 329.842 136.142C329.263 136.534 328.817 137.045 328.504 137.676C328.192 138.307 328.036 138.983 328.036 139.705V140.864C328.036 141.852 328.206 142.69 328.547 143.378C328.893 144.06 329.374 144.58 329.987 144.938C330.601 145.29 331.314 145.466 332.126 145.466C332.655 145.466 333.132 145.392 333.558 145.244C333.99 145.091 334.362 144.864 334.675 144.562C334.987 144.256 335.229 143.875 335.399 143.42L337.342 143.966C337.138 144.625 336.794 145.205 336.311 145.705C335.828 146.199 335.232 146.585 334.521 146.864C333.811 147.136 333.013 147.273 332.126 147.273ZM345.925 147.273C344.697 147.273 343.641 146.983 342.754 146.403C341.868 145.824 341.186 145.026 340.709 144.009C340.232 142.991 339.993 141.83 339.993 140.523C339.993 139.193 340.237 138.02 340.726 137.003C341.22 135.98 341.908 135.182 342.788 134.608C343.675 134.028 344.709 133.739 345.891 133.739C346.811 133.739 347.641 133.909 348.379 134.25C349.118 134.591 349.723 135.068 350.195 135.682C350.666 136.295 350.959 137.011 351.072 137.83H349.061C348.908 137.233 348.567 136.705 348.038 136.244C347.516 135.778 346.811 135.545 345.925 135.545C345.141 135.545 344.453 135.75 343.862 136.159C343.277 136.562 342.82 137.134 342.49 137.872C342.166 138.605 342.004 139.466 342.004 140.455C342.004 141.466 342.163 142.347 342.482 143.097C342.805 143.847 343.26 144.429 343.845 144.844C344.436 145.259 345.129 145.466 345.925 145.466C346.447 145.466 346.922 145.375 347.348 145.193C347.774 145.011 348.135 144.75 348.43 144.409C348.726 144.068 348.936 143.659 349.061 143.182H351.072C350.959 143.955 350.678 144.651 350.229 145.27C349.786 145.884 349.197 146.372 348.464 146.736C347.737 147.094 346.891 147.273 345.925 147.273ZM354.013 147V133.909H355.956V135.886H356.092C356.331 135.239 356.763 134.713 357.388 134.31C358.013 133.906 358.717 133.705 359.501 133.705C359.649 133.705 359.834 133.707 360.055 133.713C360.277 133.719 360.445 133.727 360.558 133.739V135.784C360.49 135.767 360.334 135.741 360.089 135.707C359.851 135.668 359.598 135.648 359.331 135.648C358.695 135.648 358.126 135.781 357.626 136.048C357.132 136.31 356.74 136.673 356.45 137.139C356.166 137.599 356.024 138.125 356.024 138.716V147H354.013ZM368.033 147.273C366.771 147.273 365.683 146.994 364.768 146.438C363.859 145.875 363.158 145.091 362.663 144.085C362.175 143.074 361.93 141.898 361.93 140.557C361.93 139.216 362.175 138.034 362.663 137.011C363.158 135.983 363.845 135.182 364.726 134.608C365.612 134.028 366.646 133.739 367.828 133.739C368.51 133.739 369.183 133.852 369.848 134.08C370.513 134.307 371.118 134.676 371.663 135.188C372.209 135.693 372.643 136.364 372.967 137.199C373.291 138.034 373.453 139.062 373.453 140.284V141.136H363.362V139.398H371.408C371.408 138.659 371.26 138 370.964 137.42C370.675 136.841 370.26 136.384 369.72 136.048C369.186 135.713 368.555 135.545 367.828 135.545C367.027 135.545 366.334 135.744 365.749 136.142C365.169 136.534 364.723 137.045 364.411 137.676C364.098 138.307 363.942 138.983 363.942 139.705V140.864C363.942 141.852 364.112 142.69 364.453 143.378C364.8 144.06 365.28 144.58 365.893 144.938C366.507 145.29 367.22 145.466 368.033 145.466C368.561 145.466 369.038 145.392 369.464 145.244C369.896 145.091 370.268 144.864 370.581 144.562C370.893 144.256 371.135 143.875 371.305 143.42L373.249 143.966C373.044 144.625 372.7 145.205 372.217 145.705C371.734 146.199 371.138 146.585 370.428 146.864C369.717 147.136 368.919 147.273 368.033 147.273ZM382.206 133.909V135.614H375.422V133.909H382.206ZM377.399 130.773H379.411V143.25C379.411 143.818 379.493 144.244 379.658 144.528C379.828 144.807 380.044 144.994 380.305 145.091C380.572 145.182 380.854 145.227 381.149 145.227C381.371 145.227 381.553 145.216 381.695 145.193C381.837 145.165 381.95 145.142 382.036 145.125L382.445 146.932C382.308 146.983 382.118 147.034 381.874 147.085C381.629 147.142 381.32 147.17 380.945 147.17C380.376 147.17 379.82 147.048 379.274 146.804C378.734 146.56 378.286 146.188 377.928 145.688C377.575 145.188 377.399 144.557 377.399 143.795V130.773ZM394.27 136.841L392.463 137.352C392.349 137.051 392.182 136.759 391.96 136.474C391.744 136.185 391.449 135.946 391.074 135.759C390.699 135.571 390.219 135.477 389.634 135.477C388.832 135.477 388.165 135.662 387.631 136.031C387.102 136.395 386.838 136.858 386.838 137.42C386.838 137.92 387.02 138.315 387.384 138.605C387.747 138.895 388.315 139.136 389.088 139.33L391.031 139.807C392.202 140.091 393.074 140.526 393.648 141.111C394.222 141.69 394.509 142.437 394.509 143.352C394.509 144.102 394.293 144.773 393.861 145.364C393.435 145.955 392.838 146.42 392.071 146.761C391.304 147.102 390.412 147.273 389.395 147.273C388.06 147.273 386.955 146.983 386.08 146.403C385.205 145.824 384.651 144.977 384.418 143.864L386.327 143.386C386.509 144.091 386.852 144.619 387.358 144.972C387.869 145.324 388.537 145.5 389.361 145.5C390.298 145.5 391.043 145.301 391.594 144.903C392.151 144.5 392.429 144.017 392.429 143.455C392.429 143 392.27 142.619 391.952 142.312C391.634 142 391.145 141.767 390.486 141.614L388.304 141.102C387.105 140.818 386.224 140.378 385.662 139.781C385.105 139.179 384.827 138.426 384.827 137.523C384.827 136.784 385.034 136.131 385.449 135.562C385.869 134.994 386.44 134.548 387.162 134.224C387.889 133.901 388.713 133.739 389.634 133.739C390.929 133.739 391.946 134.023 392.685 134.591C393.429 135.159 393.957 135.909 394.27 136.841ZM418.604 135H416.491C416.366 134.392 416.147 133.858 415.835 133.398C415.528 132.938 415.153 132.551 414.71 132.239C414.272 131.92 413.786 131.682 413.252 131.523C412.718 131.364 412.161 131.284 411.582 131.284C410.525 131.284 409.567 131.551 408.71 132.085C407.857 132.619 407.178 133.406 406.673 134.446C406.173 135.486 405.923 136.761 405.923 138.273C405.923 139.784 406.173 141.06 406.673 142.099C407.178 143.139 407.857 143.926 408.71 144.46C409.567 144.994 410.525 145.261 411.582 145.261C412.161 145.261 412.718 145.182 413.252 145.023C413.786 144.864 414.272 144.628 414.71 144.315C415.153 143.997 415.528 143.608 415.835 143.148C416.147 142.682 416.366 142.148 416.491 141.545H418.604C418.445 142.437 418.156 143.236 417.735 143.94C417.315 144.645 416.792 145.244 416.167 145.739C415.542 146.227 414.84 146.599 414.062 146.855C413.289 147.111 412.462 147.239 411.582 147.239C410.093 147.239 408.769 146.875 407.61 146.148C406.451 145.42 405.539 144.386 404.874 143.045C404.21 141.705 403.877 140.114 403.877 138.273C403.877 136.432 404.21 134.841 404.874 133.5C405.539 132.159 406.451 131.125 407.61 130.398C408.769 129.67 410.093 129.307 411.582 129.307C412.462 129.307 413.289 129.435 414.062 129.69C414.84 129.946 415.542 130.321 416.167 130.815C416.792 131.304 417.315 131.901 417.735 132.605C418.156 133.304 418.445 134.102 418.604 135ZM427.065 147.273C425.884 147.273 424.847 146.991 423.955 146.429C423.068 145.866 422.375 145.08 421.875 144.068C421.381 143.057 421.134 141.875 421.134 140.523C421.134 139.159 421.381 137.969 421.875 136.952C422.375 135.935 423.068 135.145 423.955 134.582C424.847 134.02 425.884 133.739 427.065 133.739C428.247 133.739 429.281 134.02 430.168 134.582C431.06 135.145 431.753 135.935 432.247 136.952C432.747 137.969 432.997 139.159 432.997 140.523C432.997 141.875 432.747 143.057 432.247 144.068C431.753 145.08 431.06 145.866 430.168 146.429C429.281 146.991 428.247 147.273 427.065 147.273ZM427.065 145.466C427.963 145.466 428.702 145.236 429.281 144.776C429.861 144.315 430.29 143.71 430.568 142.96C430.847 142.21 430.986 141.398 430.986 140.523C430.986 139.648 430.847 138.832 430.568 138.077C430.29 137.321 429.861 136.71 429.281 136.244C428.702 135.778 427.963 135.545 427.065 135.545C426.168 135.545 425.429 135.778 424.849 136.244C424.27 136.71 423.841 137.321 423.562 138.077C423.284 138.832 423.145 139.648 423.145 140.523C423.145 141.398 423.284 142.21 423.562 142.96C423.841 143.71 424.27 144.315 424.849 144.776C425.429 145.236 426.168 145.466 427.065 145.466ZM438.079 139.125V147H436.067V133.909H438.011V135.955H438.181C438.488 135.29 438.954 134.756 439.579 134.352C440.204 133.943 441.011 133.739 441.999 133.739C442.886 133.739 443.661 133.92 444.326 134.284C444.991 134.642 445.508 135.188 445.877 135.92C446.246 136.648 446.431 137.568 446.431 138.682V147H444.42V138.818C444.42 137.79 444.153 136.989 443.619 136.415C443.085 135.835 442.352 135.545 441.42 135.545C440.778 135.545 440.204 135.685 439.698 135.963C439.198 136.241 438.803 136.648 438.513 137.182C438.224 137.716 438.079 138.364 438.079 139.125ZM455.8 133.909V135.614H449.016V133.909H455.8ZM450.993 130.773H453.004V143.25C453.004 143.818 453.087 144.244 453.251 144.528C453.422 144.807 453.638 144.994 453.899 145.091C454.166 145.182 454.447 145.227 454.743 145.227C454.964 145.227 455.146 145.216 455.288 145.193C455.43 145.165 455.544 145.142 455.629 145.125L456.038 146.932C455.902 146.983 455.712 147.034 455.467 147.085C455.223 147.142 454.913 147.17 454.538 147.17C453.97 147.17 453.413 147.048 452.868 146.804C452.328 146.56 451.879 146.188 451.521 145.688C451.169 145.188 450.993 144.557 450.993 143.795V130.773ZM458.825 147V133.909H460.768V135.886H460.905C461.143 135.239 461.575 134.713 462.2 134.31C462.825 133.906 463.53 133.705 464.314 133.705C464.462 133.705 464.646 133.707 464.868 133.713C465.089 133.719 465.257 133.727 465.371 133.739V135.784C465.303 135.767 465.146 135.741 464.902 135.707C464.663 135.668 464.411 135.648 464.143 135.648C463.507 135.648 462.939 135.781 462.439 136.048C461.945 136.31 461.553 136.673 461.263 137.139C460.979 137.599 460.837 138.125 460.837 138.716V147H458.825ZM472.675 147.273C471.493 147.273 470.456 146.991 469.564 146.429C468.678 145.866 467.984 145.08 467.484 144.068C466.99 143.057 466.743 141.875 466.743 140.523C466.743 139.159 466.99 137.969 467.484 136.952C467.984 135.935 468.678 135.145 469.564 134.582C470.456 134.02 471.493 133.739 472.675 133.739C473.857 133.739 474.891 134.02 475.777 134.582C476.669 135.145 477.362 135.935 477.857 136.952C478.357 137.969 478.607 139.159 478.607 140.523C478.607 141.875 478.357 143.057 477.857 144.068C477.362 145.08 476.669 145.866 475.777 146.429C474.891 146.991 473.857 147.273 472.675 147.273ZM472.675 145.466C473.572 145.466 474.311 145.236 474.891 144.776C475.47 144.315 475.899 143.71 476.178 142.96C476.456 142.21 476.595 141.398 476.595 140.523C476.595 139.648 476.456 138.832 476.178 138.077C475.899 137.321 475.47 136.71 474.891 136.244C474.311 135.778 473.572 135.545 472.675 135.545C471.777 135.545 471.038 135.778 470.459 136.244C469.879 136.71 469.45 137.321 469.172 138.077C468.893 138.832 468.754 139.648 468.754 140.523C468.754 141.398 468.893 142.21 469.172 142.96C469.45 143.71 469.879 144.315 470.459 144.776C471.038 145.236 471.777 145.466 472.675 145.466ZM483.688 129.545V147H481.677V129.545H483.688ZM494.395 147V129.545H500.293C501.662 129.545 502.781 129.793 503.651 130.287C504.526 130.776 505.173 131.438 505.594 132.273C506.014 133.108 506.224 134.04 506.224 135.068C506.224 136.097 506.014 137.031 505.594 137.872C505.179 138.713 504.537 139.384 503.668 139.884C502.798 140.378 501.685 140.625 500.327 140.625H496.099V138.75H500.259C501.196 138.75 501.949 138.588 502.517 138.264C503.085 137.94 503.497 137.503 503.753 136.952C504.014 136.395 504.145 135.767 504.145 135.068C504.145 134.369 504.014 133.744 503.753 133.193C503.497 132.642 503.082 132.21 502.509 131.898C501.935 131.58 501.173 131.42 500.224 131.42H496.509V147H494.395ZM511.368 129.545V147H509.357V129.545H511.368ZM518.904 147.307C518.075 147.307 517.322 147.151 516.646 146.838C515.969 146.52 515.433 146.062 515.035 145.466C514.637 144.864 514.438 144.136 514.438 143.284C514.438 142.534 514.586 141.926 514.881 141.46C515.177 140.989 515.572 140.619 516.066 140.352C516.56 140.085 517.106 139.886 517.702 139.756C518.305 139.619 518.91 139.511 519.518 139.432C520.313 139.33 520.958 139.253 521.452 139.202C521.952 139.145 522.316 139.051 522.543 138.92C522.776 138.79 522.893 138.562 522.893 138.239V138.17C522.893 137.33 522.663 136.676 522.202 136.21C521.748 135.744 521.058 135.511 520.131 135.511C519.171 135.511 518.418 135.722 517.873 136.142C517.327 136.562 516.944 137.011 516.722 137.489L514.813 136.807C515.154 136.011 515.609 135.392 516.177 134.949C516.751 134.5 517.376 134.187 518.052 134.011C518.734 133.83 519.404 133.739 520.063 133.739C520.484 133.739 520.967 133.79 521.512 133.892C522.063 133.989 522.594 134.19 523.106 134.497C523.623 134.804 524.052 135.267 524.393 135.886C524.734 136.506 524.904 137.335 524.904 138.375V147H522.893V145.227H522.79C522.654 145.511 522.427 145.815 522.109 146.139C521.79 146.463 521.367 146.739 520.839 146.966C520.31 147.193 519.665 147.307 518.904 147.307ZM519.211 145.5C520.006 145.5 520.677 145.344 521.222 145.031C521.773 144.719 522.188 144.315 522.467 143.821C522.751 143.327 522.893 142.807 522.893 142.261V140.42C522.808 140.523 522.62 140.616 522.33 140.702C522.046 140.781 521.717 140.852 521.342 140.915C520.972 140.972 520.612 141.023 520.259 141.068C519.913 141.108 519.631 141.142 519.415 141.17C518.893 141.239 518.404 141.349 517.95 141.503C517.501 141.651 517.137 141.875 516.859 142.176C516.586 142.472 516.45 142.875 516.45 143.386C516.45 144.085 516.708 144.614 517.225 144.972C517.748 145.324 518.41 145.5 519.211 145.5ZM530.587 139.125V147H528.575V133.909H530.518V135.955H530.689C530.996 135.29 531.462 134.756 532.087 134.352C532.712 133.943 533.518 133.739 534.507 133.739C535.393 133.739 536.169 133.92 536.834 134.284C537.499 134.642 538.016 135.188 538.385 135.92C538.754 136.648 538.939 137.568 538.939 138.682V147H536.928V138.818C536.928 137.79 536.661 136.989 536.126 136.415C535.592 135.835 534.859 135.545 533.928 135.545C533.286 135.545 532.712 135.685 532.206 135.963C531.706 136.241 531.311 136.648 531.021 137.182C530.732 137.716 530.587 138.364 530.587 139.125ZM548.103 147.273C546.842 147.273 545.754 146.994 544.839 146.438C543.93 145.875 543.228 145.091 542.734 144.085C542.245 143.074 542.001 141.898 542.001 140.557C542.001 139.216 542.245 138.034 542.734 137.011C543.228 135.983 543.915 135.182 544.796 134.608C545.683 134.028 546.717 133.739 547.898 133.739C548.58 133.739 549.254 133.852 549.918 134.08C550.583 134.307 551.188 134.676 551.734 135.188C552.279 135.693 552.714 136.364 553.038 137.199C553.362 138.034 553.523 139.062 553.523 140.284V141.136H543.433V139.398H551.478C551.478 138.659 551.33 138 551.035 137.42C550.745 136.841 550.33 136.384 549.79 136.048C549.256 135.713 548.626 135.545 547.898 135.545C547.097 135.545 546.404 135.744 545.819 136.142C545.239 136.534 544.793 137.045 544.481 137.676C544.168 138.307 544.012 138.983 544.012 139.705V140.864C544.012 141.852 544.183 142.69 544.523 143.378C544.87 144.06 545.35 144.58 545.964 144.938C546.577 145.29 547.29 145.466 548.103 145.466C548.631 145.466 549.109 145.392 549.535 145.244C549.967 145.091 550.339 144.864 550.651 144.562C550.964 144.256 551.205 143.875 551.376 143.42L553.319 143.966C553.114 144.625 552.771 145.205 552.288 145.705C551.805 146.199 551.208 146.585 550.498 146.864C549.788 147.136 548.989 147.273 548.103 147.273Z" fill="#94A3B8"/>
<defs>
<linearGradient id="paint0_linear_5_3" x1="61.4375" y1="62.4688" x2="164.562" y2="62.4688" gradientUnits="userSpaceOnUse">
<stop stop-color="#14B8A6"/>
<stop offset="0.5" stop-color="#06B6D4"/>
<stop offset="1" stop-color="#8B5CF6"/>
</linearGradient>
<linearGradient id="paint1_linear_5_3" x1="71.9844" y1="73.0156" x2="154.016" y2="73.0156" gradientUnits="userSpaceOnUse">
<stop stop-color="#14B8A6"/>
<stop offset="0.5" stop-color="#06B6D4"/>
<stop offset="1" stop-color="#8B5CF6"/>
</linearGradient>
<linearGradient id="paint2_linear_5_3" x1="54.4062" y1="112.859" x2="68.4688" y2="112.859" gradientUnits="userSpaceOnUse">
<stop stop-color="#14B8A6"/>
<stop offset="0.5" stop-color="#06B6D4"/>
<stop offset="1" stop-color="#8B5CF6"/>
</linearGradient>
<linearGradient id="paint3_linear_5_3" x1="157.531" y1="112.859" x2="171.594" y2="112.859" gradientUnits="userSpaceOnUse">
<stop stop-color="#14B8A6"/>
<stop offset="0.5" stop-color="#06B6D4"/>
<stop offset="1" stop-color="#8B5CF6"/>
</linearGradient>
<linearGradient id="paint4_linear_5_3" x1="86.0469" y1="64.8125" x2="161.666" y2="114.153" gradientUnits="userSpaceOnUse">
<stop stop-color="#22D3EE"/>
<stop offset="0.45" stop-color="#06B6D4"/>
<stop offset="1" stop-color="#2563EB"/>
</linearGradient>
<linearGradient id="paint5_linear_5_3" x1="220" y1="85.5" x2="653" y2="85.5" gradientUnits="userSpaceOnUse">
<stop stop-color="#14B8A6"/>
<stop offset="0.5" stop-color="#06B6D4"/>
<stop offset="1" stop-color="#8B5CF6"/>
</linearGradient>
</defs>
</svg>
