<svg width="220" height="220" viewBox="0 0 220 220" fill="none" xmlns="http://www.w3.org/2000/svg">
<g clip-path="url(#clip0_5_74)">
<path d="M171.875 0H48.125C21.5463 0 0 21.5463 0 48.125V171.875C0 198.454 21.5463 220 48.125 220H171.875C198.454 220 220 198.454 220 171.875V48.125C220 21.5463 198.454 0 171.875 0Z" fill="#0F172A"/>
<path d="M79.0625 44.6875C85.9375 29.2188 134.062 29.2188 140.938 44.6875" stroke="url(#paint0_linear_5_74)" stroke-width="5.15625" stroke-linecap="round"/>
<path d="M79.0625 52.4219C83.3341 52.4219 86.7969 48.9591 86.7969 44.6875C86.7969 40.4159 83.3341 36.9531 79.0625 36.9531C74.7909 36.9531 71.3281 40.4159 71.3281 44.6875C71.3281 48.9591 74.7909 52.4219 79.0625 52.4219Z" fill="#0B1220"/>
<path d="M79.0625 52.4219C83.3341 52.4219 86.7969 48.9591 86.7969 44.6875C86.7969 40.4159 83.3341 36.9531 79.0625 36.9531C74.7909 36.9531 71.3281 40.4159 71.3281 44.6875C71.3281 48.9591 74.7909 52.4219 79.0625 52.4219Z" stroke="url(#paint1_linear_5_74)" stroke-width="3.4375"/>
<path d="M140.938 52.4219C145.209 52.4219 148.672 48.9591 148.672 44.6875C148.672 40.4159 145.209 36.9531 140.938 36.9531C136.666 36.9531 133.203 40.4159 133.203 44.6875C133.203 48.9591 136.666 52.4219 140.938 52.4219Z" fill="#0B1220"/>
<path d="M140.938 52.4219C145.209 52.4219 148.672 48.9591 148.672 44.6875C148.672 40.4159 145.209 36.9531 140.938 36.9531C136.666 36.9531 133.203 40.4159 133.203 44.6875C133.203 48.9591 136.666 52.4219 140.938 52.4219Z" stroke="url(#paint2_linear_5_74)" stroke-width="3.4375"/>
<path d="M60.1562 61.875C60.1562 57.2917 63.0208 55 68.75 55H151.25C156.979 55 159.844 57.2917 159.844 61.875V128.906C159.844 168.438 135.781 183.906 110 192.5C84.2188 183.906 60.1562 168.438 60.1562 128.906V61.875Z" fill="url(#paint3_linear_5_74)"/>
<path d="M92.8125 102.266C98.0333 102.266 102.266 98.0333 102.266 92.8125C102.266 87.5917 98.0333 83.3594 92.8125 83.3594C87.5917 83.3594 83.3594 87.5917 83.3594 92.8125C83.3594 98.0333 87.5917 102.266 92.8125 102.266Z" fill="#0B1220"/>
<path d="M95.3906 93.2422C97.0518 93.2422 98.3984 91.8955 98.3984 90.2344C98.3984 88.5732 97.0518 87.2266 95.3906 87.2266C93.7295 87.2266 92.3828 88.5732 92.3828 90.2344C92.3828 91.8955 93.7295 93.2422 95.3906 93.2422Z" fill="#E2F7FF"/>
<path d="M127.188 102.266C132.408 102.266 136.641 98.0333 136.641 92.8125C136.641 87.5917 132.408 83.3594 127.188 83.3594C121.967 83.3594 117.734 87.5917 117.734 92.8125C117.734 98.0333 121.967 102.266 127.188 102.266Z" fill="#0B1220"/>
<path d="M129.766 93.2422C131.427 93.2422 132.773 91.8955 132.773 90.2344C132.773 88.5732 131.427 87.2266 129.766 87.2266C128.104 87.2266 126.758 88.5732 126.758 90.2344C126.758 91.8955 128.104 93.2422 129.766 93.2422Z" fill="#E2F7FF"/>
<path d="M96.25 113.438C105.417 120.312 114.583 120.312 123.75 113.438" stroke="#0B1220" stroke-width="4.29688" stroke-linecap="round"/>
<path d="M110 156.406C115.695 156.406 120.312 151.789 120.312 146.094C120.312 140.398 115.695 135.781 110 135.781C104.305 135.781 99.6875 140.398 99.6875 146.094C99.6875 151.789 104.305 156.406 110 156.406Z" fill="#0B1220"/>
<path d="M104.844 154.688L101.406 171.875H118.594L115.156 154.688H104.844Z" fill="#0B1220"/>
</g>
<defs>
<linearGradient id="paint0_linear_5_74" x1="79.0625" y1="33.0859" x2="140.938" y2="33.0859" gradientUnits="userSpaceOnUse">
<stop stop-color="#14B8A6"/>
<stop offset="1" stop-color="#8B5CF6"/>
</linearGradient>
<linearGradient id="paint1_linear_5_74" x1="71.3281" y1="36.9531" x2="86.7969" y2="36.9531" gradientUnits="userSpaceOnUse">
<stop stop-color="#14B8A6"/>
<stop offset="1" stop-color="#8B5CF6"/>
</linearGradient>
<linearGradient id="paint2_linear_5_74" x1="133.203" y1="36.9531" x2="148.672" y2="36.9531" gradientUnits="userSpaceOnUse">
<stop stop-color="#14B8A6"/>
<stop offset="1" stop-color="#8B5CF6"/>
</linearGradient>
<linearGradient id="paint3_linear_5_74" x1="60.1562" y1="55" x2="190.84" y2="149.746" gradientUnits="userSpaceOnUse">
<stop stop-color="#22D3EE"/>
<stop offset="0.5" stop-color="#06B6D4"/>
<stop offset="1" stop-color="#2563EB"/>
</linearGradient>
<clipPath id="clip0_5_74">
<rect width="220" height="220" fill="white"/>
</clipPath>
</defs>
</svg>
